# xmcd CD database file
#
# Track frame offsets:
#	150
#	18248
#	33914
#	53470
#	79735
#	93711
#	106133
#	117222
#	129463
#	149284
#	168431
#
# Disc length: 2668 seconds
#
# Revision: 0
# Processed by: cddbd v1.5.2PL0 Copyright (c) Steve Scherf et al.
# Submitted via: CDex 1.51
#
DISCID=830a6a0b
DTITLE=Eric Bibb - Global Griot - Act Two
DYEAR=2018
DGENRE=Blues
TTITLE0=Race And Equality
TTITLE1=Grateful
TTITLE2=All Because
TTITLE3=Spirit Day
TTITLE4=Let God
TTITLE5=Last Night I Had The Strangest Dream
TTITLE6=Picture A New World (Instrumental)
TTITLE7=New Friends
TTITLE8=Mole In The Ground
TTITLE9=Michael,Row The Boat Ashore
TTITLE10=Needed Time
EXTD=YEAR: 2018
EXTT0=
EXTT1=
EXTT2=
EXTT3=
EXTT4=
EXTT5=
EXTT6=
EXTT7=
EXTT8=
EXTT9=
EXTT10=
PLAYORDER=
